<?xml version="1.0" encoding="utf-8"?>
<?xml-stylesheet type="text/xsl" href="rss1.xsl"?>
<rss version="2.0" xmlns:atom="http://www.w3.org/2005/Atom" xmlns:content="http://purl.org/rss/1.0/modules/content/" xmlns:dc="http://purl.org/dc/elements/1.1/" xmlns:media="http://search.yahoo.com/mrss/">
<channel>
 <title>Getty</title>
 <link>http://www.gettyimg.com/</link>
 <atom:link href="http://www.gettyimg.com/" rel="self" type="application/rss+xml" />

 
                <item>
                <title><![CDATA[【Music Videos】Nogizaka46- Hadashi de Summer LPCM Bluray]]></title>
                <link><![CDATA[https://sharemania.us/threads/nogizaka46-hadashi-de-summer-lpcm-bluray.235474/]]></link>
                <description><![CDATA[<article>
<blockquote class="messageText SelectQuoteContainer ugc baseHtml">
<img src="https://i.imgur.com/Zf3ZOoH.png" class="bbCodeImage LbImage" alt="[​IMG]" data-url="https://i.imgur.com/Zf3ZOoH.png" style=""> <br>
<br>
General<br>
ID : 1 (0x1)<br>
Complete name : D:\♬.NOGIZAKA46 MV Blu-ray 1920x1080\15.1.Hadashi de Summer.m2ts<br>
Format : BDAV<br>
Format/Info : Blu-ray Video<br>
File size : 988 MiB<br>
Duration : 4 min 50 s<br>
Overall bit rate mode : Variable<br>
Overall bit rate : 28.5 Mb/s<br>
Maximum Overall bit rate : 35.5 Mb/s<br>
Frame rate : 23.976 FPS<br>
Video<br>
ID : 4113 (0x1011)<br>
Menu ID : 1 (0x1)<br>
Format : AVC<br>
Format/Info : Advanced Video Codec<br>
Format profile : High@L4.1<br>
Format settings : CABAC / 2 Ref Frames<br>
Format settings, CABAC : Yes<br>
Format settings, Reference fra : 2 frames<br>
Format settings, GOP : M=1, N=10<br>
Codec ID : 27<br>
Duration : 4 min 50 s<br>
Bit rate mode : Variable<br>
Bit rate : 25.0 Mb/s<br>
Width : 1 920 pixels<br>
Height : 1 080 pixels<br>
Display aspect ratio : 16:9<br>
Frame rate : 23.976 (24000/1001) FPS<br>
Color space : YUV<br>
Chroma subsampling : 4:2:0<br>
Bit depth : 8 bits<br>
Scan type : Progressive<br>
Bits/(Pixel*Frame) : 0.504<br>
Time code of first frame : 01:29:56:0000000020<br>
Stream size : 867 MiB (88%)<br>
Audio<br>
ID : 4352 (0x1100)<br>
Menu ID : 1 (0x1)<br>
Format : PCM<br>
Format settings : Big / Signed<br>
Muxing mode : Blu-ray<br>
Codec ID : 128<br>
Duration : 4 min 50 s<br>
Bit rate mode : Constant<br>
Bit rate : 2 304 kb/s<br>
Channel(s) : 2 channels<br>
Channel layout : L R<br>
Sampling rate : 48.0 kHz<br>
Bit depth : 24 bits<br>
Delay relative to video : -6 ms<br>
Stream size : 79.9 MiB (8%)<br>
<br>
<br>
<div class="bbCodeBlock bbCodeVfcHH HiddenContent">
<div class="attribution type">Hidden Content:</div>
<blockquote>You must reply before you can see the hidden data contained here.</blockquote>
</div>
<div class="messageTextEndMarker">&nbsp;</div>
</blockquote>
</article>]]></description>
                <author><![CDATA[Crimseney101]]></author>
                </item>

                </channel></rss>